<svg xmlns="http://www.w3.org/2000/svg" viewBox="0 0 512 512" width="512" height="512">
    <rect width="512" height="512" rx="128" fill="#2563eb" />
    <path d="M 334 165 C 334 165 298 140 256 140 C 214 140 178 165 178 210 C 178 260 230 275 270 285 C 300 292 342 308 342 355 C 342 410 290 432 256 432 C 210 432 170 410 170 410 L 182 355 C 182 355 220 380 256 380 C 300 380 342 360 342 315 C 342 265 285 245 242 235 C 208 227 170 205 170 160 C 170 100 226 80 256 80 C 306 80 342 105 342 105 Z" fill="#ffffff" />
</svg>
