<svg xmlns="http://www.w3.org/2000/svg" viewBox="0 0 100 100">
  <rect width="100" height="100" rx="25" fill="#4285F4"/>
  <path d="M72,56 v-12 l-7,-1.5 c-1,-2.5 -2,-4.5 -4,-6.5 l4.5,-6.5 l-8.5,-8.5 l-6.5,4.5 c-2,-1.5 -4,-2.5 -6.5,-3.5 l-1.5,-7 h-12 l-1.5,7 c-2.5,1 -4.5,2 -6.5,3.5 l-6.5,-4.5 l-8.5,8.5 l4.5,6.5 c-1.5,2 -2.5,4 -3.5,6.5 l-7,1.5 v12 l7,1.5 c1,2.5 2,4.5 3.5,6.5 l-4.5,6.5 l8.5,8.5 l6.5,-4.5 c2,1.5 4,2.5 6.5,3.5 l1.5,7 h12 l1.5,-7 c2.5,-1 4.5,-2 6.5,-3.5 l6.5,4.5 l8.5,-8.5 l-4.5,-6.5 c1.5,-2 2.5,-4 3.5,-6.5 l7,-1.5 z M50,65 c-8.3,0 -15,-6.7 -15,-15 c0,-8.3 6.7,-15 15,-15 c8.3,0 15,6.7 15,15 c0,8.3 -6.7,15 -15,15 z M50,42 c-4.4,0 -8,3.6 -8,8 c0,4.4 3.6,8 8,8 c4.4,0 8,-3.6 8,-8 c0,-4.4 -3.6,-8 -8,-8 z" fill="#ffffff"/>
</svg>
